<?xml version="1.0" encoding="utf-8"?>
<!-- Generator: Adobe Illustrator 24.2.1, SVG Export Plug-In . SVG Version: 6.00 Build 0)  -->
<svg version="1.1" id="グループ_193" xmlns="http://www.w3.org/2000/svg" xmlns:xlink="http://www.w3.org/1999/xlink" x="0px"
	 y="0px" viewBox="0 0 43.3 43.3" style="enable-background:new 0 0 43.3 43.3;" xml:space="preserve">
<style type="text/css">
	.st0{fill:#FF7EB3;}
	.st1{enable-background:new    ;}
	.st2{fill:#FFFFFF;}
</style>
<path id="パス_92" class="st0" d="M21.6,0c11.9,0,21.6,9.7,21.6,21.6s-9.7,21.6-21.6,21.6S0,33.6,0,21.6C0,9.7,9.7,0,21.6,0
	C21.6,0,21.6,0,21.6,0z"/>
<g>
	<g class="st1">
		<g>
			<path class="st2" d="M25,19c-0.7,1.1-1.2,2.3-1.7,3.6c-0.5,1.3-0.8,2.5-1.1,3.8c-0.2,1.3-0.4,2.5-0.4,3.6h-3.6
				c0.2-2.5,0.8-4.9,1.8-7.2c1-2.3,2.3-4.4,3.9-6.4h-8v-3.2h11.5v2.9C26.5,16.9,25.7,17.9,25,19z"/>
		</g>
	</g>
</g>
</svg>
