<?xml version="1.0" encoding="utf-8"?>
<!-- Generator: Adobe Illustrator 24.1.2, SVG Export Plug-In . SVG Version: 6.00 Build 0)  -->
<svg version="1.1" id="グループ_190" xmlns="http://www.w3.org/2000/svg" xmlns:xlink="http://www.w3.org/1999/xlink" x="0px"
	 y="0px" viewBox="0 0 42 42" style="enable-background:new 0 0 42 42;" xml:space="preserve">
<style type="text/css">
	.st0{fill:#AC6A00;}
	.st1{enable-background:new    ;}
	.st2{fill:#FFFFFF;}
</style>
<circle id="楕円形_26" class="st0" cx="21" cy="21" r="21"/>
<g class="st1">
	<path class="st2" d="M18.8,21.2h1.7c0.8,0,1.4-0.2,1.8-0.6c0.4-0.4,0.6-1,0.6-1.6c0-0.7-0.2-1.2-0.6-1.5c-0.4-0.4-0.9-0.5-1.6-0.5
		c-0.6,0-1.1,0.2-1.6,0.5s-0.6,0.8-0.6,1.3h-3.2c0-0.9,0.2-1.6,0.7-2.3c0.5-0.7,1.1-1.2,1.9-1.6c0.8-0.4,1.7-0.6,2.7-0.6
		c1.7,0,3.1,0.4,4.1,1.2c1,0.8,1.5,2,1.5,3.4c0,0.7-0.2,1.4-0.7,2.1c-0.5,0.6-1.1,1.1-1.8,1.4c0.9,0.3,1.6,0.8,2.1,1.5
		c0.5,0.7,0.7,1.4,0.7,2.3c0,1.5-0.5,2.6-1.6,3.5c-1.1,0.9-2.5,1.3-4.2,1.3c-1.6,0-3-0.4-4-1.3c-1-0.9-1.6-2-1.6-3.4h3.2
		c0,0.6,0.2,1.1,0.7,1.5c0.5,0.4,1,0.6,1.7,0.6c0.8,0,1.4-0.2,1.8-0.6c0.4-0.4,0.7-0.9,0.7-1.6c0-1.6-0.9-2.4-2.7-2.4h-1.7V21.2z"/>
</g>
<g id="グループ_77" transform="translate(15 2.329)">
	<g id="user">
		<g id="グループ_76">
			<path id="パス_47" class="st2" d="M11.6,2.2c0,0.2-0.1,0.5-0.2,0.6c-0.2,0.2-0.4,0.3-0.6,0.3L10,8.1H1.7L0.9,3.2
				C0.4,3.2,0,2.7,0,2.2C0,2,0.1,1.7,0.3,1.6c0.2-0.2,0.4-0.3,0.7-0.3c0.5,0,0.9,0.4,0.9,0.9c0,0.1,0,0.2-0.1,0.3
				c0,0.1-0.1,0.2-0.1,0.2l2.2,1.7l1.4-2.8C5.2,1.6,5.1,1.5,5,1.4C4.9,1.2,4.9,1.1,4.9,0.9c0-0.3,0.1-0.5,0.3-0.7
				C5.4,0.1,5.6,0,5.9,0c0.3,0,0.5,0.1,0.7,0.3c0.2,0.2,0.3,0.4,0.3,0.7c0,0.2,0,0.3-0.1,0.4C6.6,1.5,6.5,1.6,6.4,1.7l1.4,2.8
				L10,2.8C10,2.7,9.9,2.6,9.9,2.5c0-0.1-0.1-0.2-0.1-0.3c0-0.3,0.1-0.5,0.3-0.7c0.2-0.2,0.4-0.3,0.7-0.3c0.3,0,0.5,0.1,0.7,0.3
				C11.6,1.8,11.6,2,11.6,2.2z M10.1,9.1c0.1,0.1,0.1,0.2,0.1,0.3c0,0.1-0.1,0.2-0.1,0.3C10,9.9,9.9,9.9,9.8,9.9H1.9
				c-0.1,0-0.2-0.1-0.3-0.1C1.4,9.7,1.4,9.6,1.4,9.5c0-0.1,0.1-0.2,0.1-0.3C1.6,9.1,1.7,9,1.9,9h7.9C9.9,9,10,9.1,10.1,9.1L10.1,9.1
				z"/>
		</g>
	</g>
</g>
</svg>
