<?xml version="1.0" encoding="utf-8"?>
<!-- Generator: Adobe Illustrator 24.2.1, SVG Export Plug-In . SVG Version: 6.00 Build 0)  -->
<svg version="1.1" id="グループ_193" xmlns="http://www.w3.org/2000/svg" xmlns:xlink="http://www.w3.org/1999/xlink" x="0px"
	 y="0px" viewBox="0 0 43.3 43.3" style="enable-background:new 0 0 43.3 43.3;" xml:space="preserve">
<style type="text/css">
	.st0{fill:#FF7EB3;}
	.st1{enable-background:new    ;}
	.st2{fill:#FFFFFF;}
</style>
<path id="パス_92" class="st0" d="M21.6,0c11.9,0,21.6,9.7,21.6,21.6s-9.7,21.6-21.6,21.6S0,33.6,0,21.6C0,9.7,9.7,0,21.6,0
	C21.6,0,21.6,0,21.6,0z"/>
<g>
	<g class="st1">
		<g>
			<path class="st2" d="M16.5,15.5c0.3-0.6,0.8-1.1,1.3-1.4c0.5-0.4,1.1-0.7,1.8-0.9c0.7-0.2,1.4-0.3,2-0.3c1,0,1.9,0.2,2.6,0.5
				c0.7,0.3,1.3,0.7,1.7,1.2s0.8,0.9,0.9,1.5c0.2,0.5,0.3,1,0.3,1.4c0,0.8-0.2,1.6-0.6,2.2s-1,1.1-1.8,1.3v0c1,0.2,1.8,0.7,2.3,1.4
				c0.5,0.7,0.8,1.6,0.8,2.7c0,0.9-0.2,1.7-0.5,2.3c-0.4,0.7-0.8,1.2-1.4,1.6s-1.3,0.8-2,1c-0.8,0.2-1.5,0.3-2.3,0.3
				c-0.8,0-1.6-0.1-2.4-0.3c-0.8-0.2-1.4-0.5-2-0.9c-0.6-0.4-1.1-1-1.4-1.6s-0.5-1.4-0.5-2.4c0-1.1,0.3-2,0.8-2.7
				c0.6-0.7,1.3-1.2,2.3-1.4v0c-0.8-0.2-1.4-0.6-1.8-1.3S16,18.3,16,17.5C16,16.7,16.2,16.1,16.5,15.5z M18.9,26.1
				c0.2,0.4,0.4,0.7,0.6,0.9c0.3,0.2,0.6,0.4,0.9,0.6c0.4,0.1,0.8,0.2,1.2,0.2c0.4,0,0.8-0.1,1.1-0.2c0.3-0.1,0.6-0.3,0.9-0.6
				c0.3-0.2,0.5-0.5,0.6-0.9c0.1-0.4,0.2-0.7,0.2-1.2c0-0.4-0.1-0.8-0.2-1.1S24,23.3,23.7,23c-0.3-0.2-0.6-0.4-0.9-0.6
				c-0.3-0.1-0.7-0.2-1.1-0.2c-0.8,0-1.5,0.2-2.1,0.7c-0.6,0.5-0.9,1.1-0.9,2C18.7,25.4,18.8,25.8,18.9,26.1z M19.9,19.4
				c0.5,0.4,1.1,0.6,1.8,0.6c0.7,0,1.3-0.2,1.8-0.6c0.5-0.4,0.7-0.9,0.7-1.6c0-0.2,0-0.5-0.1-0.7c-0.1-0.3-0.2-0.5-0.4-0.8
				c-0.2-0.2-0.4-0.4-0.8-0.6c-0.3-0.2-0.8-0.2-1.3-0.2c-0.3,0-0.7,0.1-1,0.2c-0.3,0.1-0.6,0.3-0.8,0.4c-0.2,0.2-0.4,0.4-0.6,0.7
				c-0.1,0.3-0.2,0.6-0.2,1C19.1,18.5,19.3,19.1,19.9,19.4z"/>
		</g>
	</g>
</g>
</svg>
