<?xml version="1.0" encoding="utf-8"?>
<!-- Generator: Adobe Illustrator 24.2.1, SVG Export Plug-In . SVG Version: 6.00 Build 0)  -->
<svg version="1.1" id="グループ_193" xmlns="http://www.w3.org/2000/svg" xmlns:xlink="http://www.w3.org/1999/xlink" x="0px"
	 y="0px" viewBox="0 0 43.3 43.3" style="enable-background:new 0 0 43.3 43.3;" xml:space="preserve">
<style type="text/css">
	.st0{fill:#FF7EB3;}
	.st1{enable-background:new    ;}
	.st2{fill:#FFFFFF;}
</style>
<path id="パス_92" class="st0" d="M21.6,0c11.9,0,21.6,9.7,21.6,21.6s-9.7,21.6-21.6,21.6S0,33.6,0,21.6C0,9.7,9.7,0,21.6,0
	C21.6,0,21.6,0,21.6,0z"/>
<g>
	<g class="st1">
		<g>
			<path class="st2" d="M23.5,15.9c-0.4-0.4-0.9-0.6-1.5-0.6c-0.6,0-1.1,0.2-1.5,0.5c-0.4,0.4-0.7,0.8-1,1.3
				c-0.2,0.5-0.4,1.1-0.5,1.7c-0.1,0.6-0.2,1.1-0.2,1.6l0,0c0.5-0.7,1-1.2,1.6-1.4s1.3-0.4,2.2-0.4c0.7,0,1.4,0.2,2.1,0.5
				c0.7,0.3,1.3,0.7,1.8,1.3c0.4,0.5,0.8,1.1,1,1.8s0.3,1.3,0.3,2c0,0.9-0.1,1.7-0.4,2.4s-0.7,1.4-1.2,1.9c-0.5,0.6-1.1,1-1.9,1.3
				s-1.5,0.5-2.4,0.5c-1.3,0-2.3-0.3-3.1-0.8s-1.5-1.2-2-2c-0.5-0.8-0.8-1.7-1-2.8c-0.2-1-0.3-2.1-0.3-3.2c0-1,0.1-2.1,0.4-3.1
				c0.2-1,0.6-2,1.2-2.8c0.5-0.8,1.2-1.5,2-2.1c0.8-0.5,1.8-0.8,3-0.8c0.7,0,1.4,0.1,2,0.3s1.2,0.5,1.7,0.9c0.5,0.4,0.9,0.9,1.2,1.5
				c0.3,0.6,0.5,1.2,0.6,2h-3.2C24.2,16.8,23.9,16.3,23.5,15.9z M20.6,21.4c-0.3,0.2-0.6,0.4-0.9,0.7c-0.2,0.3-0.4,0.6-0.5,1
				c-0.1,0.4-0.2,0.8-0.2,1.2c0,0.4,0.1,0.8,0.2,1.1c0.1,0.4,0.3,0.7,0.5,1c0.2,0.3,0.5,0.5,0.9,0.7s0.7,0.3,1.2,0.3
				c0.4,0,0.8-0.1,1.1-0.3c0.3-0.2,0.6-0.4,0.8-0.7c0.2-0.3,0.4-0.6,0.5-1c0.1-0.4,0.2-0.7,0.2-1.1c0-0.4-0.1-0.8-0.2-1.2
				c-0.1-0.4-0.3-0.7-0.5-1c-0.2-0.3-0.5-0.5-0.8-0.7c-0.3-0.2-0.7-0.3-1.1-0.3C21.4,21.2,21,21.2,20.6,21.4z"/>
		</g>
	</g>
</g>
</svg>
