<?xml version="1.0" encoding="utf-8"?>
<!-- Generator: Adobe Illustrator 24.2.1, SVG Export Plug-In . SVG Version: 6.00 Build 0)  -->
<svg version="1.1" id="グループ_193" xmlns="http://www.w3.org/2000/svg" xmlns:xlink="http://www.w3.org/1999/xlink" x="0px"
	 y="0px" viewBox="0 0 43.3 43.3" style="enable-background:new 0 0 43.3 43.3;" xml:space="preserve">
<style type="text/css">
	.st0{fill:#FF7EB3;}
	.st1{enable-background:new    ;}
	.st2{fill:#FFFFFF;}
</style>
<path id="パス_92" class="st0" d="M21.6,0c11.9,0,21.6,9.7,21.6,21.6s-9.7,21.6-21.6,21.6S0,33.6,0,21.6C0,9.7,9.7,0,21.6,0
	C21.6,0,21.6,0,21.6,0z"/>
<g>
	<g class="st1">
		<g>
			<path class="st2" d="M13.8,29.9V19H9.6v-2.6c0.6,0,1.2,0,1.7-0.1c0.6-0.1,1-0.3,1.5-0.6c0.4-0.3,0.8-0.6,1.1-1
				c0.3-0.4,0.5-1,0.6-1.6h2.7v16.8H13.8z"/>
		</g>
		<g>
			<path class="st2" d="M22.1,17.3c0.3-1.1,0.8-2,1.3-2.7c0.6-0.7,1.2-1.2,2-1.4s1.5-0.4,2.4-0.4c0.8,0,1.6,0.1,2.4,0.4
				s1.4,0.8,2,1.4c0.6,0.7,1,1.6,1.3,2.7c0.3,1.1,0.5,2.5,0.5,4.1c0,1.7-0.2,3.1-0.5,4.2c-0.3,1.1-0.8,2-1.3,2.7
				c-0.6,0.7-1.2,1.2-2,1.4c-0.7,0.3-1.5,0.4-2.4,0.4c-0.8,0-1.6-0.1-2.4-0.4c-0.7-0.3-1.4-0.8-2-1.4c-0.6-0.7-1-1.6-1.3-2.7
				c-0.3-1.1-0.5-2.5-0.5-4.2C21.6,19.8,21.8,18.4,22.1,17.3z M25.1,23.1c0,0.7,0.1,1.3,0.3,2c0.2,0.6,0.4,1.2,0.8,1.6
				c0.4,0.4,0.9,0.7,1.6,0.7c0.7,0,1.2-0.2,1.6-0.7c0.4-0.4,0.6-1,0.8-1.6c0.2-0.6,0.3-1.3,0.3-2c0-0.7,0-1.3,0-1.7c0-0.3,0-0.6,0-1
				c0-0.4,0-0.8-0.1-1.3c-0.1-0.4-0.1-0.9-0.2-1.3c-0.1-0.4-0.3-0.8-0.5-1.1s-0.5-0.6-0.8-0.8s-0.7-0.3-1.2-0.3
				c-0.5,0-0.9,0.1-1.2,0.3c-0.3,0.2-0.6,0.5-0.8,0.8s-0.4,0.7-0.5,1.1s-0.2,0.9-0.2,1.3c0,0.4-0.1,0.9-0.1,1.3c0,0.4,0,0.8,0,1
				C25,21.9,25.1,22.5,25.1,23.1z"/>
		</g>
	</g>
</g>
</svg>
