<?xml version="1.0" encoding="utf-8"?>
<!-- Generator: Adobe Illustrator 24.2.1, SVG Export Plug-In . SVG Version: 6.00 Build 0)  -->
<svg version="1.1" id="グループ_193" xmlns="http://www.w3.org/2000/svg" xmlns:xlink="http://www.w3.org/1999/xlink" x="0px"
	 y="0px" viewBox="0 0 43.3 43.3" style="enable-background:new 0 0 43.3 43.3;" xml:space="preserve">
<style type="text/css">
	.st0{fill:#FF7EB3;}
	.st1{fill:#FFFFFF;}
	.st2{enable-background:new    ;}
</style>
<path id="パス_92" class="st0" d="M21.6,0c11.9,0,21.6,9.7,21.6,21.6s-9.7,21.6-21.6,21.6S0,33.6,0,21.6C0,9.7,9.7,0,21.6,0
	L21.6,0z"/>
<g id="グループ_77" transform="translate(15 2.329)">
	<g id="user">
		<g id="グループ_76">
			<path id="パス_47" class="st1" d="M11.6,2.2c0,0.2-0.1,0.5-0.2,0.6C11.2,3,11,3.1,10.8,3.1l-0.8,5H1.7L0.9,3.2
				C0.4,3.2,0,2.7,0,2.2C0,2,0.1,1.7,0.3,1.6C0.5,1.4,0.7,1.3,1,1.3c0.5,0,0.9,0.4,0.9,0.9c0,0.1,0,0.2-0.1,0.3
				c0,0.1-0.1,0.2-0.1,0.2l2.2,1.7l1.4-2.8C5.2,1.6,5.1,1.5,5,1.4C4.9,1.2,4.9,1.1,4.9,0.9c0-0.3,0.1-0.5,0.3-0.7
				C5.4,0.1,5.6,0,5.9,0s0.5,0.1,0.7,0.3S6.9,0.7,6.9,1c0,0.2,0,0.3-0.1,0.4C6.6,1.5,6.5,1.6,6.4,1.7l1.4,2.8L10,2.8
				c0-0.1-0.1-0.2-0.1-0.3S9.8,2.3,9.8,2.2c0-0.3,0.1-0.5,0.3-0.7s0.4-0.3,0.7-0.3s0.5,0.1,0.7,0.3C11.6,1.8,11.6,2,11.6,2.2z
				 M10.1,9.1c0.1,0.1,0.1,0.2,0.1,0.3s-0.1,0.2-0.1,0.3C10,9.9,9.9,9.9,9.8,9.9H1.9c-0.1,0-0.2-0.1-0.3-0.1
				C1.4,9.7,1.4,9.6,1.4,9.5s0.1-0.2,0.1-0.3C1.6,9.1,1.7,9,1.9,9h7.9C9.9,9,10,9.1,10.1,9.1L10.1,9.1z"/>
		</g>
	</g>
</g>
<g>
	<g class="st2">
		<g>
			<path class="st1" d="M14.4,27.6v-3.1l7.3-9.8h3v10.1h2.2v2.8h-2.2v3.9h-3.2v-3.9H14.4z M21.4,19L17,24.8h4.4V19L21.4,19z"/>
		</g>
	</g>
</g>
</svg>
